<?xml version="1.0" standalone="no"?>
<!DOCTYPE svg PUBLIC "-//W3C//DTD SVG 20010904//EN"
 "http://www.w3.org/TR/2001/REC-SVG-20010904/DTD/svg10.dtd">
<svg version="1.0" xmlns="http://www.w3.org/2000/svg"
 width="48.000000pt" height="48.000000pt" viewBox="0 0 48.000000 48.000000"
 preserveAspectRatio="xMidYMid meet">

<g transform="translate(0.000000,48.000000) scale(0.100000,-0.100000)"
fill="#000000" stroke="none">
<path d="M0 240 l0 -240 240 0 240 0 0 240 0 240 -240 0 -240 0 0 -240z m251
130 c48 -25 86 -92 75 -134 -10 -42 -43 -34 -56 13 -20 76 -93 103 -147 57
-26 -23 -28 -30 -32 -116 -3 -95 -14 -116 -46 -90 -18 15 -21 143 -4 187 22
58 83 102 142 103 15 0 46 -9 68 -20z m189 5 c8 -10 11 -42 9 -99 -4 -90 -17
-119 -70 -159 -68 -50 -172 -22 -211 57 -24 51 -19 96 12 96 14 0 22 -11 30
-39 20 -76 93 -103 147 -57 26 22 28 30 31 108 2 45 5 89 7 96 6 16 30 15 45
-3z"/>
</g>
</svg>
