<svg width="1171" height="345" viewBox="0 0 1171 345" fill="none" xmlns="http://www.w3.org/2000/svg">
<g clip-path="url(#clip0_1726_513)">
<path d="M247.783 207.9L195.583 289.95L109.033 149.5L108.833 296.533H48V48H109.517L196.967 195.217L197.05 128.583L247.783 207.9ZM257.8 111.883C258.2 111.083 257.8 48.8167 257.933 48H197.1C197.133 48.9833 197.017 110.933 197.05 111.883H257.8ZM351.7 180.783C344.599 180.647 337.631 182.715 331.754 186.702C325.877 190.69 321.38 196.401 318.883 203.05C323.02 196.86 329.144 192.267 336.243 190.028C343.343 187.788 350.994 188.037 357.933 190.733C364.533 193.417 373.217 197.767 380.1 195.45C376.871 190.926 372.611 187.236 367.672 184.685C362.733 182.135 357.258 180.797 351.7 180.783ZM408.2 198.467C401.95 196.3 394.867 193.85 389.717 187.117C388.717 185.783 387.783 184.283 386.783 182.7C384.552 178.586 381.534 174.95 377.9 172C373 168.4 366.567 166.633 358.233 166.633C350.042 166.635 342.035 169.07 335.229 173.627C328.422 178.184 323.122 184.66 320 192.233C323.958 186.723 329.294 182.349 335.473 179.548C341.652 176.747 348.458 175.617 355.211 176.272C361.964 176.926 368.426 179.342 373.952 183.278C379.478 187.214 383.874 192.532 386.7 198.7C388.107 201.011 390.226 202.803 392.739 203.806C395.251 204.81 398.021 204.972 400.633 204.267C408.85 202.517 408.3 210.267 420.683 212.9V210.683C420.633 203.25 416.6 201.517 408.2 198.467ZM441.933 219.567C443.75 218.462 445.241 216.896 446.257 215.029C447.273 213.161 447.776 211.058 447.717 208.933C447.55 159.65 407.55 117.483 358.217 117.483C343.387 117.471 328.787 121.148 315.732 128.183C302.678 135.218 291.578 145.39 283.433 157.783C283.267 157.35 258.067 117.95 257.8 117.483H197.05L254.767 207.867L198.45 296.533H257.45L283.117 257.1L309.25 296.533H368.267L314.767 212.333C313.881 210.693 313.4 208.864 313.367 207C313.364 201.111 314.522 195.279 316.775 189.838C319.027 184.397 322.329 179.452 326.492 175.287C330.656 171.122 335.599 167.818 341.039 165.564C346.48 163.31 352.311 162.15 358.2 162.15H358.217C383.017 162.15 387.15 176.983 392.5 183.95C403.067 197.717 424.167 191.683 424.167 209.633C424.205 211.692 424.781 213.705 425.839 215.472C426.898 217.238 428.4 218.697 430.198 219.702C431.995 220.707 434.024 221.223 436.084 221.199C438.143 221.176 440.16 220.613 441.933 219.567ZM447.767 221.783C444.883 227.983 438.433 227.417 435.183 232.433C432.25 236.95 437.083 239.3 437.083 239.3C437.083 239.3 442.7 241.9 446.05 234.117C447.783 230.267 448.383 225.983 447.767 221.783Z" fill="#002F56"/>
</g>
<rect x="576.543" y="117.268" width="16.9231" height="110" rx="8.46154" fill="#002F56"/>
<rect x="530.004" y="180.729" width="16.9231" height="110" rx="8.46154" transform="rotate(-90 530.004 180.729)" fill="#002F56"/>
<g clip-path="url(#clip1_1726_513)">
<path d="M976.945 222.459L832.695 220.626C832.249 220.616 831.812 220.502 831.418 220.293C831.023 220.083 830.684 219.784 830.425 219.42C830.175 219.041 830.017 218.609 829.963 218.159C829.91 217.708 829.962 217.251 830.116 216.824C830.366 216.118 830.816 215.5 831.412 215.047C832.007 214.593 832.721 214.324 833.467 214.272L979.055 212.433C996.324 211.644 1015.02 197.673 1021.57 180.637L1029.87 159.01C1030.1 158.424 1030.21 157.8 1030.2 157.172C1030.2 156.829 1030.17 156.486 1030.1 156.151C1025.49 136.007 1014.47 117.914 998.682 104.608C982.899 91.3022 963.22 83.5076 942.621 82.4035C922.022 81.2994 901.625 86.9459 884.515 98.4887C867.405 110.032 854.513 126.843 847.79 146.379C840.748 141.053 832.229 138.05 823.41 137.785C814.59 137.52 805.907 140.007 798.56 144.901C791.213 149.796 785.565 156.856 782.398 165.105C779.23 173.355 778.699 182.387 780.879 190.952C748.206 191.901 722.004 218.587 722.004 251.39C722.006 254.315 722.221 257.236 722.647 260.129C722.743 260.8 723.076 261.414 723.586 261.859C724.096 262.304 724.749 262.55 725.425 262.553L991.738 262.585C991.765 262.585 991.788 262.573 991.814 262.572C992.557 262.559 993.277 262.309 993.869 261.859C994.461 261.409 994.895 260.781 995.108 260.068L997.154 253.015C999.591 244.625 998.684 236.861 994.591 231.163C990.831 225.909 984.56 222.819 976.945 222.459ZM1043.16 160.592C1041.83 160.592 1040.49 160.63 1039.17 160.694C1038.7 160.73 1038.25 160.907 1037.87 161.203C1037.5 161.5 1037.23 161.901 1037.09 162.355L1031.42 181.886C1028.98 190.275 1029.89 198.03 1033.98 203.73C1037.74 208.99 1044.02 212.072 1051.63 212.433L1082.38 214.273C1082.81 214.289 1083.24 214.403 1083.62 214.609C1084 214.815 1084.32 215.106 1084.57 215.459C1084.83 215.838 1084.99 216.272 1085.05 216.726C1085.1 217.18 1085.05 217.64 1084.9 218.07C1084.65 218.774 1084.2 219.391 1083.6 219.844C1083.01 220.297 1082.3 220.567 1081.55 220.621L1049.6 222.461C1032.25 223.256 1013.55 237.221 1007.01 254.257L1004.7 260.272C1004.6 260.524 1004.57 260.795 1004.6 261.063C1004.63 261.331 1004.72 261.588 1004.87 261.813C1005.02 262.038 1005.21 262.225 1005.45 262.357C1005.68 262.49 1005.95 262.565 1006.21 262.576C1006.24 262.576 1006.27 262.587 1006.3 262.587H1116.24C1116.88 262.592 1117.5 262.389 1118.01 262.008C1118.53 261.627 1118.9 261.089 1119.08 260.477C1121.03 253.549 1122.01 246.386 1122.01 239.189C1122 195.779 1086.71 160.592 1043.16 160.592Z" fill="#002F56"/>
</g>
<defs>
<clipPath id="clip0_1726_513">
<rect width="400.002" height="248.533" fill="white" transform="translate(48 48)"/>
</clipPath>
<clipPath id="clip1_1726_513">
<rect width="400" height="180" fill="white" transform="translate(722.004 82.2676)"/>
</clipPath>
</defs>
</svg>
