<svg width="128" height="128" viewBox="0 0 128 128" fill="none" xmlns="http://www.w3.org/2000/svg">
  <path d="M96 48c-1.3 0-2.6.1-3.9.3C86.8 32.5 71.8 22 55 22c-21 0-38 17-38 38 0 1.5.1 3 .3 4.5C8.6 67.5 2 76.1 2 86c0 12.2 9.8 22 22 22h72c14.9 0 27-12.1 27-27 0-14.9-12.1-27-27-27z" fill="#F38020"/>
  <path d="M96 48c-1.3 0-2.6.1-3.9.3C86.8 32.5 71.8 22 55 22c-21 0-38 17-38 38 0 1.5.1 3 .3 4.5C8.6 67.5 2 76.1 2 86c0 12.2 9.8 22 22 22h72c14.9 0 27-12.1 27-27 0-14.9-12.1-27-27-27z" fill="#F38020" opacity="0.2"/>
  <path d="M64 52c-6 0-11 4-13 9-1.5-.6-3-1-5-1-6 0-11 4-13 9-0.5 0-1 0-1.5 0-4 0-7 3-7 7s3 7 7 7h32c5 0 9-4 9-9 0-3-1.5-5.5-4-7 0.5-1 1-2.5 1-4 0-6-4-11-10-11z" fill="#FAAE40"/>
</svg>
