<svg width="104" height="77" viewBox="0 0 104 77" fill="none" xmlns="http://www.w3.org/2000/svg">
<path d="M62.0863 37.8344C60.6506 16.6405 34.9968 7.19241 20.9075 23.9791C13.4816 32.833 15.4817 49.9961 15.6995 66.5649C15.7391 69.3643 15.4718 71.4012 14.8975 72.6754C12.1846 78.6969 3.19435 78.2314 0.897288 72.0119C0.547448 71.0612 0.372529 69.6086 0.372529 67.6543C0.342826 55.3639 -1.06313 39.0624 1.7884 28.4655C7.47165 7.39048 29.868 -4.98911 50.7495 1.92365C65.8289 6.9151 75.2449 19.2154 77.2548 35.0712C78.9776 48.5996 62.918 50.1248 62.0863 37.8344Z" fill="black"/>
<path d="M39.4115 67.0742C32.4398 60.7424 28.2442 52.3869 26.8248 42.0078C26.3231 38.3038 27.0031 35.4153 28.8648 33.3421C32.0833 29.747 37.8864 30.1234 40.58 34.2037C41.2534 35.2205 41.7156 36.9833 41.9665 39.4923C44.5314 65.3608 79.5879 69.9264 87.1835 45.3652C87.9031 43.0411 88.2728 39.3536 88.2926 34.3027C88.3323 26.2873 88.3323 18.2686 88.2926 10.2466C88.286 7.59239 88.5534 5.65786 89.0948 4.44301C91.7587 -1.54875 100.434 -1.39028 102.999 4.6807C103.421 5.67768 103.632 7.15002 103.632 9.09775C103.672 21.6062 105.058 38.2939 102.177 48.9008C94.789 76.0667 60.5049 86.2082 39.4115 67.0742Z" fill="black"/>
</svg>